<?xml version="1.0" encoding="UTF-8"?>
<!DOCTYPE svg PUBLIC "-//W3C//DTD SVG 1.1//EN" "http://www.w3.org/Graphics/SVG/1.1/DTD/svg11.dtd">
<!-- Creator: CorelDRAW 2017 -->
<svg xmlns="http://www.w3.org/2000/svg" xml:space="preserve" width="297mm" height="210mm" version="1.1" style="shape-rendering:geometricPrecision; text-rendering:geometricPrecision; image-rendering:optimizeQuality; fill-rule:evenodd; clip-rule:evenodd"
viewBox="0 0 29700 21000"
 xmlns:xlink="http://www.w3.org/1999/xlink">
 <defs>
  <style type="text/css">
   <![CDATA[
    .fil0 {fill:#FEFEFE}
   ]]>
  </style>
 </defs>
 <g id="Layer_x0020_1">
  <metadata id="CorelCorpID_0Corel-Layer"/>
  <g id="_1340655269376">
   <path class="fil0" d="M14890.91 4956.42c143.5,0 300.23,14.31 440.55,29.95l414.56 66.16c310.1,67.81 604.79,173.66 883.65,313.01l160.16 85.3c250.83,123.74 416.89,280.35 633.57,440.38 61.7,45.54 135.24,122.03 190.72,177.52 41.69,41.69 75.94,75.9 117.63,117.59l223.51 257.21c20.49,27.13 32.31,44.02 52.41,70.34l99.05 136.18c256.62,377.97 452.98,799.91 564.49,1245.86 155.28,621.14 155.83,1308.12 2.04,1926.99 -74.06,298.06 -192.5,582.9 -328.68,857.79 -16.32,32.88 -24.99,42.17 -41.01,71.5l-275.4 430.32 -209.3 261.19c-140.42,155.34 -290.13,305.73 -454.66,435.21 -122.88,96.68 -246.01,191.65 -378.76,275.81 -25.15,15.96 -42.01,29.3 -67.17,45.35 -147.99,94.52 -313.49,170.92 -472.78,243.16 -30.33,13.73 -48.49,23.12 -84.87,37.88 -733.79,297.99 -1604.81,367.65 -2375.92,172.91 -137.18,-34.63 -245.55,-68.26 -371.02,-109.7l-263.94 -104.29c-31.91,-15.31 -55.22,-24.02 -85.16,-37.55 -52.08,-23.5 -102.19,-51.27 -156.8,-78.46l-694.71 -461.04c-14.57,-13.27 -14.66,-16.35 -32.08,-29.3 -114.91,-85.26 -209.04,-192.43 -310.46,-292.97l-56.28 -66.46c-112.97,-134.3 -229.02,-261.96 -326.77,-409.63 -16.61,-25.09 -27.58,-41.59 -45,-67.52l-181.4 -309.55c-124.94,-251.06 -243.35,-508.36 -311.52,-782.89 -88.21,-355.19 -143.62,-699.92 -145.37,-1071.91 -0.26,-54.38 7.54,-62.64 10.42,-102.06 2.85,-38.43 -1.97,-84.13 -0.51,-123.26 11.62,-309.91 99.43,-710.32 200.98,-1005.95l102.06 -266.14c15.28,-38.68 23.59,-50.24 38.19,-84.55 26.9,-63.25 45.52,-101.03 75.07,-160.16 124.49,-248.96 277.95,-485.77 456.25,-699.54l142.97 -163.85c45.06,-45.03 72.64,-82.68 117.63,-127.83l250.64 -230.08c18.93,-15.96 16.83,-9.71 35.67,-25.7l102.16 -81.96c301.97,-252.94 737.86,-469.07 1106.09,-591.75 268.31,-89.4 621.82,-185.6 901.36,-193.05 111.45,-2.98 235.65,-20.46 347.74,-20.46zm-127.11 -51.14l287.64 0c266.75,10.26 537,49.1 815.22,118.67l375.61 115.3c64,20.94 113.85,43.79 176.8,68.68 166.16,65.68 334.06,147.09 484.71,241.51l431.71 294.47 263.35 227.59c119.87,120.8 250.12,238.85 350.24,375.93l160.88 207.33c20.03,26.06 30.68,45.03 49.68,73.06l232.77 380.89c16.35,29.62 25.51,51.34 40.82,81.93l210.08 516.13c177.51,532.64 270.35,1208.64 169.06,1792.75 -25.21,145.33 -42.63,273.26 -77.75,413.19 -54.22,216.1 -123.42,438.8 -219.72,639.43 -15.64,32.59 -20.82,52.57 -37.39,85.35 -124.88,247.34 -374.48,693.65 -576.86,895.96l-56.45 66.29c-19.77,23.53 -41.95,37.97 -60.72,62.02 -24.5,31.4 -28,37.16 -56.84,65.87l-184.12 173.89c-100.7,100.76 -224.03,189.36 -338.29,275.4 -164.99,124.27 -348.75,233.41 -533.64,325.5 -52.57,26.19 -104.49,47.75 -160.07,75.17 -111.58,55.06 -236.36,99.76 -352.6,138.34 -262.39,87.11 -526.39,134.95 -804.54,177.36l-339.37 28.84c-560.37,7.38 -1060.26,-74.78 -1555.02,-276.53 -296.08,-120.74 -532.67,-246.4 -801.89,-425.47 -52.66,-35.05 -92.67,-64.86 -143.3,-102.19 -20.07,-14.79 -16.38,-11.75 -34.18,-27.15l-231.57 -198.01c-69.37,-51.18 -193.38,-175.6 -249.05,-241.9l-112.62 -132.87c-151.48,-175.12 -297.05,-371.18 -404.71,-577.15 -85.16,-162.88 -175.96,-320.78 -243.55,-492.89 -192.98,-491.43 -284.98,-950.85 -284.98,-1504.88 0,-466.19 69.79,-848.21 205.84,-1256.78 19.97,-60.01 41.24,-117.21 66.13,-179.36 56.68,-141.55 123.85,-274.75 191.69,-411.74 91.93,-185.57 207.3,-355.25 331.34,-517.58l221.6 -269.35c62.66,-84.87 163.63,-166.57 238.88,-241.83l127.76 -117.7c80.22,-81.25 181.15,-140.35 270.9,-209.82 95.69,-74.06 194.64,-129.67 297.32,-193.63 25.54,-15.89 50.17,-31.82 76.94,-45.8l583.52 -265.43c405.62,-134.98 800.08,-213.51 1198.74,-228.79z"/>
   <path class="fil0" d="M11812.29 8863.51c0,-143.65 19.49,-375.29 44.83,-517.68 9.88,-55.62 19.85,-106.14 32.76,-161.59 72.15,-310.59 180.27,-617.22 349.88,-887.7 87.47,-139.48 174.8,-270.09 276.31,-398.73 139.57,-176.9 314.27,-319.9 480,-471.23 96.92,-88.47 282.59,-209.37 398.05,-266.76 200.69,-99.73 395.01,-194.86 613.11,-256.27l468.32 -104.42 446.31 -35.15c48,0.87 43.5,8.02 81.44,10.81 27.35,2.04 63.99,-0.33 92.38,-0.36 51.37,0 53.57,7.9 91.8,10.49 217.2,14.82 431.97,58.23 633.02,123.88 99.21,32.37 186.09,65.74 283.49,105.17 270.13,109.34 606.08,316.92 825.03,514.83 62.48,56.49 143.4,120.61 193.54,184.89 19.03,24.38 17.51,26.87 41.47,50.6l92.22 102.12c148.05,162.5 325.18,433.59 416.78,636.71 10.23,22.69 14.44,39.59 27,65.03 79.11,160.04 135.3,318.52 179.49,495.54 24.08,96.43 51.34,206.46 67.26,311.17 53.41,350.76 47.29,743.04 -22.37,1087.91 -40.78,202.01 -97.33,386.58 -172.78,573.84 -85.56,212.28 -194.12,425.43 -332.6,608.38 -28.36,37.46 -48.2,67.95 -77.46,106.66 -28.94,38.36 -62.47,71.08 -87.98,106.33 -17.51,24.18 -23.53,26.39 -43.63,48.43 -73.35,80.44 -148.06,166.8 -229.79,240.7 -267.05,241.38 -584.34,449.87 -921.85,581.68 -755.8,295.17 -1556.58,295.95 -2314.35,0 -132.65,-51.8 -259.63,-121.16 -383.74,-189.04 -138.77,-75.88 -275.33,-166.86 -394.71,-270.13 -23.31,-20.19 -35.32,-25.31 -56.49,-45.8 -136.6,-132.26 -281.64,-259.02 -399.37,-408.63 -91.44,-116.2 -181.82,-238.82 -257.31,-366.58 -13.53,-22.92 -24.73,-39.33 -37.83,-64.45 -24.8,-47.42 -43.35,-76.59 -68.14,-126.17 -24.77,-49.53 -40.21,-78.47 -61.99,-132.37 -163.24,-403.61 -172.34,-468.93 -247.59,-897.95 -15.38,-87.66 -24.51,-270.65 -24.51,-364.16zm-51.14 -112.48c0,368.97 3.62,523.8 94.1,887.79 82.15,330.66 202.53,596.77 372.34,875.46l379.92 499.69 515.94 445.47c78.79,52.54 153.43,103.19 240.15,148.51 27.67,14.47 30.2,19.87 57.74,34.31l264.01 124.69c299.09,117.53 706.69,239.24 1031.71,236.55 72.21,-0.61 106.43,10.26 184.08,10.26 77.66,0 111.84,-10.87 184.09,-10.26 173.34,1.43 343.89,-37.9 512.15,-70.85 143.1,-28.03 450.39,-129.61 588.93,-198.62 25.47,-12.66 42.24,-16.74 65.03,-27.03l194.08 -102.51c114.2,-66.49 349.66,-221.12 457.74,-319.59l103 -91.34c26.87,-20.98 30.2,-20.85 55.68,-46.62 19.38,-19.61 31.59,-31.65 51.11,-51.17l228.62 -252.06c133.14,-178.65 243.94,-331.72 348.56,-531.09 62.15,-118.44 133.97,-288.54 178.58,-414.62 230.89,-652.69 224.77,-1391.33 7.51,-2045.78l-79.15 -207.26c-35.67,-91.54 -108.5,-247.17 -156.92,-323.79 -26.25,-41.59 -44.29,-81.44 -71.41,-122.9 -163.56,-249.83 -346.16,-479.07 -568.12,-679.7l-271.44 -219.5c-140.33,-107.95 -331.44,-205.41 -491.6,-285.72 -766.28,-384.1 -1703.34,-390.8 -2503.84,-76.42l-261.09 117.34c-147.06,73.38 -284.17,162.13 -416.6,258.43l-133 102.26c-83.74,62.57 -154.24,136.82 -228.59,211.18 -201.25,201.2 -192.83,193.44 -352.12,404.78 -26.96,35.76 -47.74,71.01 -73.9,110.21 -293.3,439.68 -507.29,1084.06 -507.29,1609.9z"/>
   <path class="fil0" d="M15985.29 8423.71l-319.65 334.95c-27.57,26.84 -34.73,21.04 -38.32,63.97 201.14,0 381.89,20.46 583,20.46l-450.03 20.42c-67.39,-0.1 -99.86,9.91 -153.04,10.62 -81.05,1.07 -138.96,-4.7 -225.65,9.61 -53.05,8.77 -11.17,33.63 -67.97,167.25 -59.98,141.1 -85.14,60.11 0.68,176.68 81.6,110.86 267.73,60.33 414.91,54.8 39.2,-1.46 83.28,0.42 123.13,0.42 480.43,0 400.54,46.61 600.87,-156.02 81.35,-82.28 227.6,-165.05 227.6,-294.01 0,-62.25 -134.89,-189.11 -186.71,-232.64l-76.69 -66.55c-136.46,-136.77 -128.4,-129.51 -289.57,-110.61 -38.04,4.47 -101.8,0.65 -142.56,0.65z"/>
   <path class="fil0" d="M13955.92 9769.05c-18.87,32.49 -19.16,32.01 -51.72,50.26 17.8,-39.71 11.33,-34.24 51.72,-50.26zm4.25 -5.48l-4.25 5.48 4.25 -5.48zm10.22 -10.22l-10.22 10.22 10.22 -10.22zm10.23 -10.2l-10.23 10.2 10.23 -10.2zm10.23 -10.23l-10.23 10.23 10.23 -10.23zm10.23 -10.23l-10.23 10.23 10.23 -10.23zm0 0c10.26,-38.45 80.18,-93.29 120.41,-135.3 24.57,-25.67 28.62,-39.69 55.94,-66.78 24.7,-24.51 41.85,-41.89 66.58,-66.39l179 -199.43c67.33,-80.01 86.75,-41.43 9.49,-157.86 -58.62,-88.37 -31.89,-173.34 -93.81,-182.37 -29.78,-4.34 -108.31,0.09 -143.3,0.09 -20.42,6.22 -399.01,393.91 -447.47,442.36 -39.98,39.98 -72.35,72.71 -112.52,112.52 -139.02,137.83 -91.51,150.19 -94.22,355.81 -1.17,88.95 -53.64,283.29 70.72,347.87 60.5,31.43 121.03,9.52 194.61,9.52 59.65,0 169.48,6.63 223.15,-1.88 194.06,-30.82 68.5,42.92 280.81,-169.23 90.14,-90.08 65.38,-61.63 58.71,-145.6 -5.14,-64.93 -0.12,-157.35 0.1,-225.19 0.29,-81.18 -10.23,-127.54 -10.23,-214.77 -53.83,4.5 -23.85,10.55 -98.24,65.42 -47.71,35.25 -195.67,197.29 -259.73,231.21z"/>
   <path class="fil0" d="M15780.75 9763.57l10.23 2.34c31.07,16.6 42.85,38.03 66.29,73.34l-75.32 -65.45 -1.2 -10.23zm0 0l-10.23 -10.22 10.23 10.22zm-10.23 -10.22l-10.23 -10.2 10.23 10.2zm-10.23 -10.2l-10.23 -10.23 10.23 10.23zm-10.23 -10.23l-10.23 -10.23 10.23 10.23zm-10.23 -10.23l-10.22 -10.23 10.22 10.23zm-10.22 -10.23c-34.51,-9.22 -44.25,-28.71 -69.05,-53.7l-462.82 -427.01c-81.37,18.96 -40.94,57.71 -276.14,112.48 0,54.7 -20.62,88.24 -6.7,149.87 14.6,64.61 98.4,130.77 157.58,190.2l92.12 81.77c116.17,117.11 226.36,225.61 342.47,342.79 81.86,82.6 122.51,63.86 273.68,63.86 121.71,0 378.4,42.99 407.66,-103.74 8.81,-44.06 -8.77,-509.95 -8.77,-509.95 -29.98,-44.8 -79.95,-85.06 -120.19,-125.3 -36.51,-36.48 -81.86,-108.96 -153.46,-98.02 -93.68,14.34 -416.47,1.85 -472.98,28.98 11.2,42.01 42.85,52.43 67.52,85.87 28.23,38.23 45.8,53.22 78.2,85.46 30.33,30.17 144.31,151.81 150.88,176.44z"/>
   <path class="fil0" d="M14430.65 9640.86c0,59.33 -14.17,83.84 -10.58,132.88 3.01,40.65 7.7,20.55 10.71,61.3l-0.22 378.66c-0.46,65.65 -1.62,74.87 33.08,110.12l148.58 158.29c70.49,70.44 169.71,193.51 254.97,187.39 5.53,-0.39 50.3,-9.23 58.07,-12.4 51.4,-20.94 229.47,-231.73 264.81,-267.05 131.1,-131.1 109.96,-116.72 109.96,-360.53 0,-92.38 -91.67,-127.02 -186.64,-222.47l-158.55 -148.32c-26.57,-27.58 -21.29,-34.8 -63.93,-38.33 0,106.82 -10.61,190.66 -10.22,306.83 0.22,68.63 -10.46,94.13 -10.46,153.21 0,54.6 0.23,109.24 0.23,163.85l-20.69 -214.54c0,-78.47 -0.03,-157.03 0.23,-235.49l-9.84 -337.9c-1.68,-45.19 -10.62,-54.77 -10.62,-112.13 -45.31,0 -116.72,-18.78 -152.36,-31.72 -184.15,-66.88 -49.72,-103.65 -195.38,1.03 -108.44,77.95 -51.15,144.05 -51.15,327.32z"/>
   <path class="fil0" d="M13039.64 8873.74c0,38.49 27.97,76.52 51.66,101.77l129.71 125.98c261.58,236.43 143.36,191.6 483.47,191.6 69.4,0 115.17,-90.06 155.89,-130.45l194.44 -204.48c27.58,-26.84 34.74,-21.04 38.33,-63.96l-409.12 -20.46c-47.71,0.16 -95.49,0 -143.2,0l10.52 -9.94c37.32,-19.84 140.74,-10.52 183.79,-10.52l427.51 -12.3c61.5,-9.78 145.72,-4.17 206.64,-18.35 37.42,-160.62 24.41,-128.96 102.29,-276.18l-93.97 -90.15c-43.37,-50.95 -40.07,-32.59 -223.09,-32.59 -123.33,0 -274.59,-8.68 -380.57,8.12 -97.79,15.54 -306.6,-27.38 -368.52,20.17 -64.29,49.36 -128.99,139.09 -194.51,194.12 -22.72,19.1 -27.58,17.35 -51.24,40.81 -47.29,46.91 -120.03,110.74 -120.03,186.81z"/>
   <path class="fil0" d="M14430.65 7472.53c0,41.85 -15.11,253.84 10.2,276.18l283.82 258.27c36.15,30.36 56.32,76.49 104.87,89.44l20.59 -276.01c3.5,-47.3 -4.89,-106.66 0.52,-152.92 5.73,-48.81 9.58,-79.79 9.58,-143.85l10.23 0c0,71.6 0.06,143.21 0,214.81 -0.07,83.99 10.48,124.94 10.23,204.54 -0.26,76.29 -1.65,145.18 8.12,206.68 11.78,74.28 -4.85,138.93 12.33,212.7 47.97,11.16 102.42,18.48 146.57,37.51 47.36,20.4 78.43,43.09 119.35,64.74 25.02,-16.73 132.97,-112.35 132.97,-143.17 0,-145.17 12.24,-792.3 -12.07,-887.99 -8.97,-35.38 -21.3,-40.75 -46.71,-65.8l-225.07 -235.2c-109.63,-109.77 -172.56,-129.45 -286.37,-15.38 -37.61,37.71 -74.8,68.43 -104.84,109.96 -44.57,61.7 -194.32,161.46 -194.32,245.49z"/>
   <path class="fil0" d="M15750.06 7963.45l-10.23 10.22 10.23 -10.22zm10.23 -10.2l-10.23 10.2 10.23 -10.2zm10.23 -10.23l-10.23 10.23 10.23 -10.23zm0 0l0 -10.23 11.95 8.52 -11.95 1.71zm-30.69 30.65c-10.26,38.46 -80.18,93.29 -120.41,135.31l-281.09 312.14c-26.58,31.62 -72.87,64.86 -99.67,104.88 28.26,53.37 72.51,105.68 90.28,165.4 21.78,73.09 -6.6,112.32 145.14,111.39 51.66,-0.33 62.7,-7.16 89.57,-33.6l260.57 -261.06c29.1,-28.75 35.54,-45.13 61.15,-71.83 21.91,-22.92 38.97,-38.39 61.57,-61.18l194.5 -194.15c60.28,-59.95 48.43,-106.75 48.43,-217.52 0,-85.23 -0.39,-170.56 0.09,-255.79 1.23,-222.41 -156.95,-183.99 -327.38,-184.02 -42.57,0 -88.4,-3.43 -128.93,4.08 -43.69,8.06 -88.24,0.49 -125.17,7.77 -45.61,8.97 -119.09,73.51 -146.76,108.96 -84.39,108.17 -138.38,91.21 -106.5,263.81 12.53,67.88 2.92,184.18 5.79,260.15 1.69,45.67 10.62,62.7 10.62,122.36 50.63,-26.81 166.8,-145.44 226.98,-192.41 41.07,-32.05 61.47,-71.24 141.22,-124.69z"/>
   <path class="fil0" d="M13980.62 7983.9l-10.23 -10.23 10.23 10.23zm0 0c34.67,9.26 44.12,28.68 69.05,53.7l346.25 318.58c25.77,19.04 45.35,42.31 67.98,65 12.36,12.4 18.06,18.91 30.52,30.82l27.51 23.66c1.4,1.13 4.38,3.76 5.51,4.69 1.13,0.94 3.66,3.14 5.5,4.73 43.21,-22.85 68.08,-44.09 115.88,-68.2 42.21,-21.3 96.53,-39.85 150.04,-44.29 49.68,-213.24 -25.96,-217.03 -79.5,-268.27 -174.31,-166.83 -287.25,-295.24 -475.54,-465.41 -36.32,-32.82 -60.44,-68.59 -99.54,-94.81 -77.1,0 -204.41,7.7 -275.53,-0.65 -76,-8.93 -191.46,-21.33 -256.62,10.59 -29.98,14.66 -52.6,36.74 -64.61,68.36 -28.39,74.78 -6.67,280.78 -6.7,402.42 -0.03,151.36 -6.73,121.16 74.16,202.02 26.22,26.25 121.03,129.02 146.79,139.57 41.98,17.16 216.75,8.68 263.81,0 43.67,-8.09 93.49,-4.17 139.22,-3.98 62.22,0.32 74.19,-10.29 132.88,-10.29l-109.8 -135.7c-17.77,-17.9 -28.32,-28.16 -46.19,-45.83l-161.07 -186.71z"/>
   <path class="fil0" d="M12037.29 8853.28c47.49,-3.95 314.54,-105.59 372.41,-128.77 120.77,-48.36 244.42,-92.31 353.74,-147.44 172.62,-87.04 552.35,-228.91 552.35,-460.19 0,-233.03 -205.48,-777.23 -313.47,-995.69l-95.65 -211.21c-35.25,25.83 -20.46,41.82 -20.46,153.4l0.13 347.91c-2.88,39.04 -9.16,26.25 -10.75,71.05 -4.69,131.81 -14.37,263.81 -46.61,393.19 -58.55,234.61 -132.42,256.17 -231.08,382.61 -106.89,136.89 -265.72,284.95 -389.28,408.5l-130.41 135.5c-15.67,21.49 -26.51,29.65 -40.92,51.14z"/>
   <path class="fil0" d="M16404.67 8075.96c0,153.82 83.29,220.57 222.8,309.03l251.09 137.6c34.54,17.42 57.97,23.83 92.22,40.76 59.69,29.49 115.2,51.73 177.25,78.43 31.86,13.72 56.52,20.65 88.37,34.37l276.92 111.71c46.68,18.26 155.64,61.7 200.53,65.42 -30.68,-45.8 -53.05,-49.04 -89.73,-84.13 -15.79,-15.15 -24.27,-26.64 -40.52,-41.33 -22.31,-20.17 -28.78,-18.74 -51.53,-40.5 -35.38,-33.89 -48.53,-52.69 -90.35,-83.54l-437.86 -451.98c-79.11,-117.82 -111.84,-243.16 -127.99,-393.64l-31.4 -500.43c0,-125.79 -10.23,-217.85 -10.23,-347.75 -40.23,29.46 -108.3,207.3 -136.4,262.49 -109.76,215.71 -293.17,705.26 -293.17,903.49z"/>
   <path class="fil0" d="M16834.24 10806.84c0,-109.86 -23.17,-227.88 -4.04,-331.33 9.81,-53.15 4.14,-114.43 4.04,-169.85l28.36 -329.61c9.36,-59.3 11.17,-95.33 24.79,-149.1 32.83,-129.51 51.5,-143.13 120.71,-237.23 14.34,-19.49 21.53,-24.51 36.84,-44.99 63.67,-85.3 315.21,-331.82 390.18,-407.63l235.1 -214.9c35.64,-31.44 31.62,-3.53 43.63,-48.46 -143.36,33.4 -542.51,185.02 -673.74,236.59 -160.87,63.25 -242.54,112.42 -379.75,182.76 -60.99,31.3 -157.16,99.59 -196.55,151.23 -128.6,168.67 70.05,681.63 151.46,885.98 24.31,61.01 43.73,109.24 66.94,168.32l100.79 236.72c41.31,91.92 26.55,62.57 51.24,71.5z"/>
   <path class="fil0" d="M16813.79 6899.76c-29.3,-39.98 -38.07,-10.23 -102.29,-10.23 -254.75,0 -733.59,19.74 -947.29,-65.29 -68.95,-27.42 -115.01,-59.76 -167.58,-98.37l-580.45 -503.7c-32.33,-32.63 -107.17,-120.13 -145.72,-130.42 6.31,27.16 13.5,49.78 24.5,77.75 12.27,31.11 18.1,49.46 30.69,81.83 22.1,56.84 40.39,104.33 63.34,161.65l133.59 316.48c67.69,137.21 142.3,308.8 236.88,427.92l50.34 62.18c184.73,206.75 719.28,-28.09 933.5,-115.26l392.22 -170.3c30.91,-15.28 44.57,-26.41 78.27,-34.24z"/>
   <path class="fil0" d="M14880.69 11635.3l467.73 -473.21c311.43,-281.48 318.84,-278.7 790.95,-334.14 45.45,-5.31 124.36,-0.72 173.24,-0.65l163.53 -10.59c75.36,5.57 30.33,10.59 163.76,10.59 57.97,0 115.91,0 173.89,0 -17.51,-23.89 -105.59,-60.34 -139.9,-74.91 -57.52,-24.4 -104.46,-45.96 -158.13,-66.87 -54.8,-21.33 -102.09,-42.92 -159.06,-65.97 -57.68,-23.37 -106.33,-37.94 -163.66,-61.37 -123.42,-50.47 -578.47,-196.13 -726.34,-126.76 -120.18,56.42 -224.32,263.62 -282.74,382.09 -59.6,120.77 -147.41,359.01 -194.84,480.23 -23.47,60.01 -107.14,283.91 -108.43,341.56z"/>
   <path class="fil0" d="M12916.9 6889.53c28.58,24.82 161.3,80.37 200.53,96.1 28.29,11.36 41.14,21.43 69.46,32.79 298.16,119.73 642.28,280.22 967.62,280.22 192.4,0 357.65,-363.38 429.48,-521.73 23.6,-52.02 51.59,-106.81 73.09,-162.14l132.81 -337.67c18.03,-48.94 58.72,-122.91 60.11,-185.35 -45.12,30.2 -126.69,121.55 -171.33,166.18 -58.72,58.72 -110.22,109.93 -168.68,168.84 -84.58,85.27 -356.26,328.65 -474.02,374.91 -204.6,80.37 -239.79,50.65 -360.07,69.49 -170.23,26.64 -586.38,18.36 -759,18.36z"/>
   <path class="fil0" d="M12886.21 10796.61c32.76,-11.85 40.66,-50.56 71.6,-112.51l182.79 -389.99c90.48,-230.25 175.19,-420.9 175.19,-673.71 0,-149.57 -259.54,-299.12 -392.06,-364.8 -60.43,-29.94 -113.1,-56.42 -170.46,-85.23 -53.25,-26.74 -109.8,-51.4 -169.84,-75.64 -28.84,-11.69 -59.72,-24.96 -85.91,-36.84l-460.23 -184.15c10.52,39.36 9.39,21.01 79.11,84.55 21.4,19.55 24.83,15.96 46.36,35.47l363.08 332.41c255.56,291.03 334.41,308.28 349.79,785.54 1.74,53.89 10.61,35.57 10.58,163.27l0 521.63z"/>
   <path class="fil0" d="M12916.9 10817.07c106.91,0 621.07,-7.06 681.24,4.05 183.93,33.98 371.57,-5.28 560.58,134.94l182.47 155.05c60.01,60.7 113.16,113.85 173.85,173.89l334.96 360.53c-5.25,-62.89 -191.24,-514.74 -241.9,-617.25 -80.98,-163.82 -257.33,-620.33 -494.51,-620.33 -129.67,0 -239.63,32.66 -339.49,59.43 -145.04,38.88 -433.61,149.94 -580.99,216.75 -56.04,25.41 -247.69,94.03 -276.21,132.94z"/>
   <path class="fil0" d="M14492.03 8843.09c0,156.82 34.34,221.6 156.05,314.43 179.68,137.05 549.66,53.02 549.66,-314.43 0,-73 -47.9,-186.32 -106.1,-231.45 -44.22,-34.24 -51.63,-42.34 -105.1,-68.75 -134.99,-66.75 -288.84,-32.63 -384.72,62.21 -58.13,57.53 -109.79,126.96 -109.79,237.99z"/>
   <path class="fil0" d="M12569.15 13609.32l0 808 173.89 0 0 -531.86c25.28,18.55 29.59,37 49.33,63.19 18.81,24.92 27.61,39.42 46.78,65.74 33.99,46.74 60.17,84.09 94.16,130.84l188.16 272.09 153.4 0 0 -808c0,-44.54 -43.31,-30.69 -143.17,-30.69 -45.19,0 -30.91,54.9 -30.68,102.29l0 429.58 -388.66 -531.87c-95.2,0 -143.21,-14.11 -143.21,30.69z"/>
   <path class="fil0" d="M11024.71 13803.67c0,73.96 -3.69,121.45 68.79,186.93 138.73,125.33 401.7,42.6 401.7,211.95 0,95.04 -278.28,145.92 -317.06,-20.45l-173.89 0c0,233.35 298.87,287.5 461.95,236.91 45.83,-14.21 67.68,-23.4 104.91,-48.52 128.83,-86.82 144.17,-291.56 26.64,-372.77 -131.94,-91.22 -350.14,-70.82 -388.47,-154.05 -61.63,-133.97 241.57,-210.01 285.92,-19.55l163.66 0c0,-356.58 -634.15,-318.54 -634.15,-20.45z"/>
   <path class="fil0" d="M13663.56 14417.32l173.86 0c0,-194.08 -30.26,-262.45 81.83,-337.51l116.56 169.81c42.96,59.04 79.44,109.12 118.7,167.7l214.77 0 -241.25 -341.72c-18,-26.67 -25.57,-32.63 -43.11,-59.17 -16.32,-24.6 -28.75,-38.16 -42.93,-59.37l188.17 -231.18c34.73,-46.8 95.2,-90.41 108.44,-147.25 -293.05,0 -141.2,-10.61 -396.4,258.18l-104.78 120.25 0.26 -307.08c0.94,-86.04 18.13,-71.35 -174.12,-71.35l0 838.69z"/>
   <path class="fil0" d="M10574.68 13752.52l77.95 239.11c10.55,35.45 21.13,49.72 24.34,88.18l-204.55 0 102.26 -327.29zm-388.66 664.8l184.12 0c20.62,-42.98 49.3,-142.55 61.37,-194.31l296.6 0c5.44,65.26 45.97,132.3 51.14,194.31l194.35 0 -218.66 -630.29c-24.08,-72.32 -46.35,-148.64 -77.97,-208.4l-194.32 0c-30.97,58.5 -47.81,136.12 -72.83,203.31 -25.31,67.95 -48.88,136.02 -74.22,212.22l-109.9 319.65c-9.87,26.51 -27.28,77.65 -39.68,103.51z"/>
   <path class="fil0" d="M12098.66 13752.52l102.29 327.29 -204.57 0c2.91,-34.99 12.17,-50.27 20.45,-81.83l81.83 -245.46zm-388.66 664.8l184.09 0c5.18,-62.01 45.74,-129.05 51.14,-194.31l296.64 0c12.04,51.76 40.72,151.33 61.37,194.31l184.08 0c-15.24,-65.48 -44.54,-140.7 -67.62,-208.52l-74.28 -212.11c-23.83,-71.51 -48.59,-135.57 -71.61,-204.55l-72.86 -213.51 -204.57 0c-27.71,57.81 -45.74,142.24 -71.6,204.58l-214.78 634.11z"/>
   <path class="fil0" d="M14624.97 15828.79l173.89 0 0 -214.77 39.33 -32.43c29.77,22.4 65.15,83.8 90.86,117.01 16.96,21.92 25.54,38.85 41.88,60.41 18.65,24.53 33.86,36.67 42.73,69.78l204.54 0c-19.48,-29.13 -35.54,-54.18 -57.13,-86.04 -49.33,-72.63 -154.56,-208.1 -188.33,-271.93 21.21,-40.11 21.37,-37.35 53.71,-69.04l181.52 -207.1c-238.59,0 -165.11,-27.23 -299.32,119.99l-109.79 125.46 0 -480.71 -173.89 0 0 869.37z"/>
   <path class="fil0" d="M18204.8 14151.41l265.91 0c-3.01,135.3 -137.57,193.41 -227.88,94.91 -39.94,-43.54 -18.09,-50.27 -38.03,-94.91zm-132.98 -194.35l173.86 0c24.96,-93.41 222.22,-54.18 225.03,71.6l-409.11 0c-68.08,0 -27.45,232.42 48.42,309.59 160.36,163.07 544.81,130.93 544.81,-248.21 0,-174.57 -115.4,-317.06 -265.95,-317.06 -127.95,0 -313.59,28.74 -317.06,184.08z"/>
   <path class="fil0" d="M13990.85 15378.76c0,79.53 33.89,119.74 92.09,153.37 86.07,49.75 286.34,55.38 286.34,112.58 0,86.39 -195.83,114.94 -225,-10.23l-163.66 0c0,126.47 109.44,204.54 235.23,204.54 -33.28,62.93 -30.69,52.99 -30.69,122.75l102.29 10.22 0 40.92c-63.41,14.76 -59.3,14.76 -122.71,0 0,69.56 -10.23,80.44 40.82,81.8l61.73 0c127.31,-0.23 192.56,-164.37 20.16,-204.54 57.81,-120.48 3.85,8.31 178.26,-108.15 55.77,-37.22 89.57,-118.83 65.52,-196.94 -23.25,-75.58 -85.13,-105.13 -164.08,-122.35 -135.83,-29.68 -152.72,-15.02 -212.64,-83.97 17.71,-36.96 4.66,-71.6 112.49,-71.6 54.57,0 87.62,28.36 92.05,81.83l163.66 0c0,-279.35 -531.86,-268.02 -531.86,-10.23z"/>
   <path class="fil0" d="M13612.42 15706.05l-30.69 0c-69.07,0 -112.51,-70.63 -112.51,-143.17l265.91 0c-15.96,68.59 -39.03,143.17 -122.71,143.17zm-286.41 -337.52c301.27,0 110.77,-15.73 251.55,-45.83 88.27,-18.87 151.13,50.3 157.57,127.66l-450.03 0c0,116.66 -2.1,197.29 69.59,288.41 139.06,176.71 554.33,131.46 554.33,-186.12 0,-105.14 2.79,-196.19 -79.08,-278.89 -145.27,-146.8 -454.37,-117.93 -503.93,94.77z"/>
   <path class="fil0" d="M15985.29 15644.71c0,-44.67 46.16,-74.19 83.48,-80.21l151.78 -11.85c0,65.22 5.25,134.69 -101.6,154.82 -77.46,14.6 -133.66,-25.63 -133.66,-62.76zm-132.94 -255.72l153.4 0c39.39,-74.42 55.29,-71.6 132.97,-71.6 69.4,0 81.83,49.04 81.83,102.29 0,48.75 -72.83,24.14 -213.86,41.85 -349.85,43.86 -169.07,499.85 135.69,350.46 46.97,-23.01 43.57,-31.62 78.17,-54.8l0 71.6 173.89 0c0,-102.16 13.01,-445.43 -16.93,-514.93 -83.19,-192.95 -525.16,-177.06 -525.16,75.13z"/>
   <path class="fil0" d="M15770.52 14192.33c0,237.43 277.47,311.97 411.03,155.34l18.54 69.65 173.89 0 0 -634.11 -173.89 0c0,102.19 17.58,391.51 -28.12,452.59 -52.34,69.92 -227.56,81.34 -227.56,-84.39l0 -368.2 -173.89 0 0 409.12z"/>
   <path class="fil0" d="M14532.94 14100.27c0,-263.72 276.15,-254.46 276.15,-20.46 0,305.66 -211.15,216.55 -245.72,153.66 -14.79,-26.94 -30.43,-89.34 -30.43,-133.2zm-173.89 -20.46c0,400.41 395.82,422.84 555.07,248.21 154.92,-169.91 64.9,-555.04 -197.09,-555.04l-71.61 0c-165.4,0 -286.37,141.87 -286.37,306.83z"/>
   <path class="fil0" d="M15238.66 13885.46l0 -102.25 -163.66 0 0 634.11 173.89 0 0 -388.66c0,-140.35 245.49,-151.78 245.49,-10.22l0 398.88 173.85 0 0 -439.8c0,-233.87 -312.68,-248.79 -395.19,-139.48l-24.73 36.64c-1.11,1.43 -3.86,4.31 -4.79,5.44 -0.94,1.14 -3.27,3.53 -4.86,5.34z"/>
   <path class="fil0" d="M17059.25 14223.01c0,163.27 243.15,315.05 420.12,103.07l9.45 91.24 163.66 0 0 -634.11 -173.89 0 0 378.43c0,130.84 -255.69,221.24 -255.69,-61.37l0 -317.06 -163.65 0 0 439.8z"/>
   <polygon class="fil0" points="12569.15,15143.53 12804.38,15143.53 12804.38,15828.79 12988.5,15828.79 12988.5,15143.53 13233.99,15143.53 13233.99,15000.33 12569.15,15000.33 "/>
   <path class="fil0" d="M15678.46 6398.58c0,313.69 442.59,345.74 479.13,28.26 19.62,-170.69 -223.9,-354.19 -395,-189.62 -41.98,40.39 -84.13,101.93 -84.13,161.36z"/>
   <path class="fil0" d="M13602.19 6398.58c0,56.52 7.8,102.32 38.91,145.18 3.56,4.88 22.85,30.68 26.54,34.83 125.72,141.74 405.04,75.39 405.04,-180.01 0,-185.15 -237.43,-302.3 -396.53,-161.3 -31.68,28.07 -73.96,103.13 -73.96,161.3z"/>
   <path class="fil0" d="M13796.5 11584.16c69.89,0 128.8,-31.72 166.42,-68.85 42.92,-42.41 75.8,-101.64 78.59,-167.16 0.84,-19.35 -14.7,-72.67 -21.01,-90.24 -32.79,-91.12 -128.67,-150.49 -214.45,-154.02 -84.38,-3.49 -176.64,55.52 -217.84,139.03 -84.52,171.33 65.61,341.24 208.29,341.24z"/>
   <path class="fil0" d="M12170.26 9865.86l0 51.14c0,193.7 265.63,282.52 396.27,150.78 9.06,-9.13 44.41,-59.07 50.08,-72.63 82.83,-198.36 -77.72,-333.83 -190.66,-333.83l-51.14 0c-102.58,0 -204.55,101.96 -204.55,204.54z"/>
   <path class="fil0" d="M15913.72 11584.16c100.99,0 179.3,-59.98 218.5,-139.45 10.74,-21.78 25.47,-72.34 26.51,-96.56 1.84,-42.79 -27.52,-124.23 -68.4,-165.6 -46.22,-46.77 -99.76,-71.53 -168.55,-77.23 -19.9,-1.65 -74.9,11.68 -90.31,18.19 -190.65,80.41 -204.18,340.33 -13.53,433.69 23.18,11.36 66.49,26.96 95.78,26.96z"/>
   <path class="fil0" d="M17355.88 8024.82c82.67,0 148.83,1.04 212.24,-74.09 12.73,-15.09 36.68,-51.63 44,-68.56 28.09,-65.16 23.43,-158.45 -18.91,-217.43 -171.66,-239.24 -502.11,-52.83 -425.82,200.79 20.36,67.72 112.68,159.29 188.49,159.29z"/>
   <path class="fil0" d="M17386.53 10131.81c105.85,0 179.13,-59.08 218.5,-139.48 85.74,-175.09 -65.13,-331.01 -187.81,-331.01 -111.8,0 -202.89,30.78 -244.62,144.04 -6.28,17 -20.88,81.25 -19.42,99.28 9.19,113.39 109.8,227.17 233.35,227.17z"/>
   <path class="fil0" d="M12160.04 7789.59c0,148.48 101.25,245.46 255.68,245.46 120.26,0 214.81,-103.42 214.81,-255.69 0,-112.13 -99.25,-214.8 -245.49,-214.8 -117.05,0 -225,110.05 -225,225.03z"/>
   <path class="fil0" d="M16547.84 15194.68l-92.06 0 0 132.94 92.06 0 0 357.97c0,193.86 238.43,143.2 286.4,143.2l0 -132.97c-144.14,0 -112.51,37.81 -112.51,-368.2l112.51 0 0 -132.94 -112.51 0c0,-174.8 33.76,-143.21 -173.89,-143.21l0 143.21z"/>
   <polygon class="fil0" points="16486.47,14417.32 16660.36,14417.32 16660.36,13547.95 16486.47,13547.95 "/>
   <polygon class="fil0" points="16772.87,14417.32 16946.73,14417.32 16946.73,13547.95 16772.87,13547.95 "/>
   <polygon class="fil0" points="17764.99,14417.32 17938.85,14417.32 17938.85,13547.95 17764.99,13547.95 "/>
   <polygon class="fil0" points="15555.72,15828.79 15729.61,15828.79 15729.61,14959.42 15555.72,14959.42 "/>
   <path class="fil0" d="M18910.52 13875.23l0 -92.02 -163.66 0 0 634.11 173.88 0 0 -368.2c0,-134.98 108.61,-122.74 194.35,-122.74 0,-159.2 12.76,-153.4 -51.14,-153.4 -52.86,0 -96.49,20.68 -124.88,59.23 -10.43,14.18 -3.14,5.83 -11.53,19.17l-17.02 23.85z"/>
   <polygon class="fil0" points="15269.35,15828.79 15443.24,15828.79 15443.24,15194.68 15269.35,15194.68 "/>
   <polygon class="fil0" points="16926.27,15828.79 17100.16,15828.79 17100.16,15194.68 16926.27,15194.68 "/>
   <polygon class="fil0" points="19186.66,14417.32 19350.32,14417.32 19350.32,13783.21 19186.66,13783.21 "/>
   <path class="fil0" d="M16108.04 11952.39c0,97.44 75.42,209.37 81.83,286.38 -52.83,-35.38 -240.57,-204.55 -286.37,-204.55 -27.65,0 -28.23,4.86 -51.15,10.2 6.31,76.13 45.12,150.42 67.82,218.59l75.35 210.98c148.09,-12.3 28.26,-97.75 -20.42,-306.82l248.01 191.78c44.09,33.93 52.89,27.32 99.73,2.56 -10.94,-22.79 -22.27,-71.99 -31.98,-100.99l-111.22 -318.36c-35.06,0.78 -39.82,6.9 -71.6,10.23z"/>
   <path class="fil0" d="M12507.78 11788.73c22.82,12.08 30.82,17.06 51.14,30.69 49.53,-33.18 131.17,-164.08 184.12,-225.03l-10.91 255.07c-11.07,94.55 -30.49,59.53 39.27,135.92l73.96 -84.07c22.17,-30.2 41.08,-54.96 65.48,-87.94 136.93,-184.93 166.35,-182.27 77.66,-229.21 -57.16,38.29 -126.08,186.19 -184.12,225.03 1.04,-45.96 7.54,-31.72 10.36,-71.47l10.1 -286.5c-22.04,-14.79 -30.07,-23.4 -61.34,-30.69 -10.03,37.58 -5.86,18.03 -27.84,43.77 -43.76,51.24 -217.04,277.92 -227.88,324.43z"/>
   <path class="fil0" d="M12538.47 5989.46l89.31 115.24c38.06,42.11 62.37,61.37 94.81,109.76 -73.58,-1.62 -258.18,-85.42 -337.55,-92.06l-49.37 42.83 284.63 335.64c24.11,0 45.51,-20.07 61.37,-30.69 -8.8,-37.78 -56.26,-91.41 -84.16,-120.41l-99.96 -114.85c34.87,2.91 50.4,12.14 81.83,20.46l255.69 71.6 49.36 -42.79 -284.59 -335.64c-25.44,0 -38.45,25.57 -61.37,40.91z"/>
   <path class="fil0" d="M14819.31 5324.63c0,56.77 10.23,60.66 10.23,112.51 -40.98,-27.45 -169.32,-223.54 -204.57,-276.14l-71.57 0c0,81.6 7.22,393.29 20.46,450.03l71.56 0 -10.22 -296.63c25.02,18.32 32.98,41.75 53.92,68.82l111.74 154.2c45.45,69.34 50.69,63.38 110.51,63.38l-10.62 -224.61c-3.2,-84.97 7.22,-152.2 -9.84,-225.42l-71.6 0 0 173.86z"/>
   <path class="fil0" d="M17672.94 6981.58c0,-50.49 40.98,-81.79 71.6,-102.28 25.41,37.97 91.96,129.64 102.25,173.85 -46.84,10.95 -41.37,20.46 -102.25,20.46 -32.6,0 -71.6,-52.11 -71.6,-92.03zm214.77 -245.49c2.17,97.31 173.5,163.47 20.46,265.95 -16.8,-31.75 -16,-26.96 -36.84,-55.19l-116.56 -169.84c-135.66,65.09 -225.03,179.23 -111,315.54 1.91,2.29 7.22,9.06 9.23,11.23l38.39 33.21c124.98,79.5 497.52,-122.29 306.25,-347.16 -30.89,-36.35 -59.18,-73.42 -109.93,-53.74z"/>
   <path class="fil0" d="M17805.91 10847.75c-30.81,-20.61 -82.73,-52.63 -102.29,-81.83 84.1,-158.93 153.4,-44.44 153.4,-30.68 0,48.03 -31.17,82.7 -51.11,112.51zm-204.57 -30.68c33.85,9.06 145.27,90.05 182.04,114.55 217.1,144.73 183.73,131 227.07,49.11 -24.82,-16.64 -46.87,-31.85 -73.51,-49.24 -32.92,-21.46 -48.07,-20.74 -69.69,-53.05 16.31,-24.34 12.4,-10.65 20.46,-40.91 90.96,0 128.12,20.45 214.8,20.45 11.72,-43.86 25.96,-25.15 30.69,-81.83 -73.42,0 -131.16,-20.45 -204.58,-20.45 0,-63.48 3.18,-100.84 -65,-139.55 -44.63,-25.31 -88.85,-26.74 -129.54,-3.88 -39.81,22.33 -127.6,142.75 -132.74,204.8z"/>
   <path class="fil0" d="M18122.97 7431.62c42.3,-20.33 85.26,-40.92 122.71,-40.92 67.85,141.36 8.71,129.61 -40.88,153.4 -84.45,-44.67 -54.74,-51.86 -81.83,-112.48zm-255.72 20.45c3.14,140.78 88.14,34.96 194.35,10.23 6.28,26.9 9.29,30.04 20.45,51.11 -59.78,89.31 -185.02,156.93 -92.05,225.04 31.2,-20.92 41.66,-35.35 65.41,-67.56 25.35,-34.31 46.45,-34.99 57.33,-75.65 20.13,1.69 172.82,83.23 231.7,-54.73 36.51,-85.59 -66.45,-252.09 -78.3,-252.09 -32.4,0 -161.3,59.91 -200.5,75.64l-198.39 88.01z"/>
   <path class="fil0" d="M14267 12514.91c-141.56,0 -88.7,-208.75 -68.5,-252.58 47.52,-103.1 140.52,-60.98 156.99,-40.46 46.26,57.62 18,167.67 -2.43,225.71 -14.4,41.01 -36.28,67.33 -86.06,67.33zm-184.09 -112.49c0,140.97 85.39,184.09 204.54,184.09 212.41,0 245.2,-460.26 30.69,-460.26 -86.85,0 -135.15,-9.45 -194.32,92.09 -23.59,40.53 -40.91,119.38 -40.91,184.08z"/>
   <path class="fil0" d="M13970.39 5416.69c0,-27.13 5.76,-58.72 18.65,-73.39 13.04,-14.85 120.74,-78.36 167.02,41.11 121.91,314.54 -185.67,336.32 -185.67,32.28zm-81.83 -30.69c0,466.28 378.44,336.38 378.44,153.43 0,-104.33 -26.39,-271.16 -143.72,-296.54 -119.64,-25.86 -234.72,51.47 -234.72,143.11z"/>
   <path class="fil0" d="M13418.07 5682.6c-6.02,-6.9 -6.47,-4.76 -13.75,-16.9l-68.08 -167.19c-42.98,3.56 -33.69,11.62 -71.6,20.46 0,66.59 138.25,366.13 173.89,419.35 31.76,-7.41 29.62,-13.08 61.37,-20.46 0,-85.62 -30.68,-57.71 -30.68,-132.97 0,-35.25 7.57,-39.59 10.23,-71.6 48.68,13.01 102.7,74.29 194.34,122.74 40.59,-19.49 59.53,-5.95 71.57,-51.14 -34.02,-9.07 -25.83,-13.34 -57.13,-34.9l-178.1 -118.5 61.38 -235.26c-89.08,7.41 -91.64,32.4 -110.64,104.16 -13.21,49.88 -38.85,134.85 -42.8,182.21z"/>
   <path class="fil0" d="M15207.97 5478.06c0,103 57.14,163.66 173.89,163.66 103.33,0 146.83,-70.7 161.39,-155.67 15.41,-89.82 32.93,-186.57 32.93,-284.13 -96.63,0 -75.52,-48.24 -92.94,101.37 -13.53,116.54 -7.31,250.28 -96.1,260.74 -142.78,16.8 -90.67,-155.96 -79.18,-231.44 8.81,-57.75 12.53,-96.85 12.53,-161.36 -30.1,-7.03 -31.2,-10.23 -71.6,-10.23 -20.49,88.01 -40.92,210.27 -40.92,317.06z"/>
   <path class="fil0" d="M15473.92 12525.14c-94.87,0 -89.24,-125.04 -111.45,-266.98 -8.8,-56.2 -5.76,-62.38 -31.75,-101.22 -24.08,5.63 -30.2,9.54 -61.37,10.23 0,91.02 18.32,179.48 32.92,263.68 26.6,153.1 85.35,165.89 181.88,165.89 92.03,0 163.63,-72.18 163.63,-143.17 0,-50.17 -15.28,-117.11 -24.64,-169.71 -8.9,-49.95 -25.47,-121.91 -26.51,-167.84 -91.63,21.36 -89.05,-37.84 -51.11,204.58 16.22,103.77 45.74,204.54 -71.6,204.54z"/>
   <path class="fil0" d="M16783.1 6112.21c0,155.01 186.77,268.08 309.62,105.07 153.33,-203.48 203.24,-219.24 109.73,-268.73 -110.67,74.12 -171.34,336.15 -307.35,245.94 -81.12,-53.8 19.94,-167.35 54.45,-212.47 115.46,-151.14 128.08,-144.69 48.32,-186.9 -42.66,28.58 -77.55,90.5 -119.93,145.98 -27.41,35.9 -94.84,119.02 -94.84,171.11z"/>
   <path class="fil0" d="M12067.98 6603.12c59.3,13.82 100.47,46.68 163.66,61.37 -7.8,29.2 -32.82,71.48 -71.6,81.83l-92.06 -143.2zm-102.29 -30.65c21.91,41.33 236.07,388.66 255.72,388.66 28.45,0 21.56,-7 51.14,-51.15l-61.37 -92.06c27.32,-40.81 58.17,-67.78 81.83,-112.51 87.04,7.25 98.7,76.52 163.63,-20.46 -27.55,-37.58 -264.33,-117.14 -323.5,-136.73 -48.1,-15.92 -71.02,-35.89 -126.53,-37.12l-21.92 39.42c-1.36,1.62 -3.43,3.98 -4.73,5.5 -1.32,1.53 -3.52,4.15 -4.72,5.51 -1.16,1.39 -3.82,4.37 -4.76,5.47 -0.97,1.1 -3.2,3.62 -4.79,5.47z"/>
   <path class="fil0" d="M11638.4 10356.81c-15.08,-31.47 -24.27,-60.6 -40.91,-92.06 57.2,0 119.44,-19.23 173.89,-20.46 -18,26.87 -35.51,42.53 -61.38,61.41 -32.07,23.37 -32.33,30.33 -71.6,51.11zm-255.68 -143.2c6.96,29.91 17.83,47.39 30.68,71.6 74.1,0 67.75,-9.23 112.49,-10.23 22.82,43.15 38.55,89.86 61.37,132.97 -8.77,5.89 -81.83,66.59 -81.83,71.6 0,151.4 106.59,11.66 122.74,0 35.03,-25.31 50.95,-52.01 85.88,-77.78 41.27,-30.43 50.24,-46.71 85.26,-78.37 29.98,-27.09 50.95,-28.9 84.55,-79.11 -9.22,-19.26 -25.51,-59.62 -30.65,-81.79 -104.59,0 -414.91,49.88 -470.49,51.11z"/>
   <path class="fil0" d="M12313.47 11348.93c-30.53,-20.42 -50.01,-49.56 -71.6,-81.83 62.47,-14.57 101.15,-57.04 163.62,-71.6 -34.31,51.3 -62.18,96.98 -92.02,153.43zm-286.41 -51.14c0,21.23 29.94,51.14 40.92,51.14 32.63,0 77.98,-28.06 102.28,-40.91 41.5,27.8 78.21,67 102.29,112.51 -21.94,32.73 -32.43,56.68 -51.14,92.06l48.81 53.44c50.04,-34.47 137.34,-228.27 172.66,-292.23 14.34,-25.96 54.67,-79.66 54.67,-108.99 0,-22.07 -41.07,-61.34 -51.14,-61.34 -48.98,0 -261.74,112 -320.33,139.9 -23.53,11.2 -99.02,32.89 -99.02,54.42z"/>
   <path class="fil0" d="M11464.52 7687.3c28.16,0 65.15,-2.1 92.18,-0.13 39.1,2.89 32.24,10.36 81.7,10.36 -3.62,43.64 -16.83,48.43 -20.45,92.06 -36.45,-9.74 -118.77,-72.15 -153.43,-102.29zm-102.26 10.23c0,8.74 76.94,63.35 90.31,73.32 68.01,50.92 227.1,188.61 288.12,202.82 5.76,-24.79 10.68,-41.01 20.46,-61.34l-14.05 -16.67c-1.3,-1.26 -3.56,-3.85 -5.02,-5.18l-72.99 -49.75c41.4,-177.67 49.82,-144.56 163.4,-131.09 11.23,-48.98 20.72,-29.78 20.72,-93.94l-470.49 0c-6.74,28.81 -20.46,51.99 -20.46,81.83z"/>
   <path class="fil0" d="M17253.59 11205.73l237.79 222.47c123.19,124.3 97.92,70.02 184.08,-15.37 26.32,-26.03 151.14,-145.73 48.62,-145.73 -32.85,0 -15.18,10.68 -69.04,63.96 -24.51,24.25 -45.81,41.92 -63.93,69.01 -40.14,-26.86 -64.58,-40.81 -92.06,-81.82 58.33,-110.22 160.19,-107.7 61.37,-173.89 -24.6,16.47 -42.86,35.09 -64.09,58.65 -29.13,32.27 -19.23,37.68 -58.66,64.09l-73.96 -69.21c48.52,-87.36 114.88,-103.12 114.88,-145.56 0,-19.78 -18.22,-40.91 -30.69,-40.91 -32.43,0 -182.14,176.15 -194.31,194.31z"/>
   <path class="fil0" d="M16854.7 11553.5c21.04,31.4 39.82,57.43 64.16,89.25l132.78 174.05c17.35,20.29 22.33,21.3 38.26,43.57 17.02,23.79 16.12,24.24 40.95,40.88 85.32,-57.13 141.16,-114.36 214.8,-163.66 -60.85,-115.01 -69.33,-10.2 -204.57,61.37 -26.42,-49.94 -45.19,-52.34 -71.61,-102.28 39.1,-26.19 109.57,-77.56 132.98,-112.52l-13.79 -16.87c-1.2,-1.35 -3.21,-4.24 -4.56,-5.66 -40.47,-42.47 -44.97,-2.65 -128.77,59.53 -12.43,9.22 -26.32,17.25 -37,24.37 -23.02,-43.5 -38.33,-48.52 -61.37,-92.03 23.72,-15.89 143.2,-98.27 143.2,-122.74 0,-103.87 -137.54,29.59 -141.29,32.57l-51.15 40.91c-30.13,23.6 -30,14.86 -53.02,49.26z"/>
   <path class="fil0" d="M11935.01 10898.9c0,6.51 -23.05,29.52 -30.69,40.91 -143.07,0 -116.56,-153.43 -163.63,-153.43 -27.64,0 -28.19,4.89 -51.14,10.23 7.28,87.69 105.59,247.53 200.79,231.93 51.85,-8.51 113.58,-51.83 123.52,-102.78 13.17,-67.58 -102,-231.44 13.2,-231.44 41.27,0 93.19,104.23 102.29,143.21 35.57,0 61.37,6.24 61.37,-30.69 0,-34.47 -36.19,-96.82 -53.76,-120.09 -107.47,-142.26 -235.42,-57.81 -249.7,31.75 -8.19,51.37 47.75,122.88 47.75,180.4z"/>
   <path class="fil0" d="M17908.17 10285.21c0,86.33 134.04,191.04 235.32,51.2 11.56,-15.95 20.43,-29.1 34.38,-47.42 40.75,-53.53 97.07,-39.78 111.25,4.28 16.22,50.27 -51.14,142.88 -74.09,186.28 56.45,37.81 44.67,61.83 114.84,-48.78 135.95,-214.25 -109.24,-334.53 -197.06,-207.29l-60.99 92.41c-179.84,0 -20.45,-143.65 -20.45,-204.54 0,-16.64 -28,-23.86 -40.92,-30.68 -50.04,33.5 -102.28,121.61 -102.28,204.54z"/>
   <path class="fil0" d="M11607.72 7134.98c0,59.79 -5.47,75.75 37.93,115.5 133.01,121.93 212.32,-95.04 268.9,-95.04l40.91 0c35.7,53.31 66.78,23.47 -61.37,214.8l38.65 43.19c102.48,-70.09 175.21,-238.28 86.49,-311.5 -148.22,-122.32 -215.61,94.42 -288.77,94.42l-20.46 0c-13.62,-20.32 -18.61,-28.32 -30.68,-51.14 16.57,-34.57 12.59,-40.04 36.74,-75.77 6.67,-9.84 45.09,-66.14 45.09,-67.4 0,-34.54 -32.83,-82.31 -106.56,26.38 -17.06,25.15 -46.87,71.64 -46.87,106.56z"/>
   <path class="fil0" d="M13558.88 12371.64l94.45 41.01c13.73,-25.96 7.87,-20.45 28.1,-43.5 18,-20.55 19.75,-26.32 36.03,-45.8 33.6,-40.3 200.63,-236.3 212.02,-278.93 -46.87,-10.91 -23.53,-20.43 -81.83,-20.43 -25.28,47.78 -175.09,249.57 -214.77,276.15l20.45 -357.98c-42.79,-9.96 -28.12,-19.26 -81.82,-20.45l-12.63 449.93z"/>
   <path class="fil0" d="M16384.21 11839.88c7.38,31.75 13.05,29.62 20.46,61.37 52.21,-12.17 77.01,-47.36 122.71,-51.14 4.44,18.96 159.03,317.06 184.12,317.06 113.84,0 -1.88,-141.94 -34.18,-201.05 -23.21,-42.37 -79.6,-128.7 -88.57,-167.16l102.29 -51.14 -31.11 -61.15c-95.39,50.5 -187.87,94.36 -275.72,153.21z"/>
   <path class="fil0" d="M14757.94 12187.62c0,64.9 -10.23,85.39 -10.23,153.43l0 265.92c0,53.37 108.31,30.68 255.72,30.68 43.6,0 43.6,-71.6 0,-71.6l-173.89 0 10.23 -378.43c-38.78,-3.24 -46.9,-13.53 -81.83,0z"/>
   <path class="fil0" d="M15780.75 5713.29c45.54,24.11 209.3,81.83 276.14,81.83 5.64,-24.09 9.55,-30.21 10.23,-61.38l-184.54 -60.04c29.36,-124.98 102.71,-278.8 102.71,-369.53 -30.07,-6.99 -31.2,-10.23 -71.57,-10.23l-132.97 419.35z"/>
   <path class="fil0" d="M19513.98 13916.15c157.45,0 98.76,42.92 178,-261.87 22.72,-87.46 41.11,-75.65 -137.08,-75.65 -23.8,49.59 -42.73,200.47 -57.17,270.39 -8.71,42.11 -23.57,67.13 16.25,67.13z"/>
   <path class="fil0" d="M10093.96 13916.15l112.52 0c0,-69.3 -40.34,-293.66 -61.38,-337.52 -190.81,0 -164.11,-30.68 -114.52,165.67 8.16,32.18 13.89,65.26 20.3,92.22 9,37.61 6.02,79.63 43.08,79.63z"/>
   <path class="fil0" d="M17202.45 6531.55c35.67,67.4 82.47,89.63 114.42,131.03 29.36,38.07 12.43,28.33 79.89,73.51l40.91 -40.91c-35.83,-53.51 -79.69,-107.5 -132.94,-143.17 42.83,-80.99 201.67,-180.2 265.92,-276.18l-48.81 -53.47c-63.03,42.99 -101.09,105.04 -158.36,153.14l-81.76 71.67c-29.2,29.19 -57.36,51.62 -79.27,84.38z"/>
   <path class="fil0" d="M16281.93 5907.63l115.94 57.94c47.07,23.47 75.52,41.99 129.51,54.58 22.08,-32.95 20.46,-10.49 20.46,-71.6 -62.7,-5.21 -111.61,-57.1 -173.86,-71.6 15.64,-32.63 17.61,-50.7 38.81,-83.91l124.82 -253.61c0,-18.55 -37.22,-33.57 -51.14,-40.92 -31.24,20.92 -90.67,144.92 -116.01,190.79 -21.4,38.75 -30.5,68.17 -47.52,105.91 -17.45,38.65 -39.82,57.75 -41.01,112.42z"/>
   <path class="fil0" d="M19749.21 13916.15l132.97 0 81.83 -337.52c-190.69,0 -155.14,-12.17 -169.71,65.52 -7.09,37.81 -9.61,49.49 -15.44,86.88 -8.48,54.67 -29.65,123.07 -29.65,185.12z"/>
   <path class="fil0" d="M9817.82 13916.15l132.97 0 -43.31 -263.52c-16.7,-86.62 19.16,-74 -171.49,-74l81.83 337.52z"/>
   <path class="fil0" d="M18266.14 8843.09c0,185.18 225.03,170 225.03,10.19 0,-138.73 -225.03,-142.59 -225.03,-10.19z"/>
   <path class="fil0" d="M11311.12 8843.09c0,185.18 225,170 225,10.19 0,-55.51 -50.02,-103.61 -105.3,-108.34 -55.29,-4.73 -119.7,35.12 -119.7,98.15z"/>
   <path class="fil0" d="M18061.6 7994.13c2.62,31.37 9.67,49.17 20.45,71.6 47.59,-1.07 250.16,-61.85 327.42,-81.7 143.98,-36.93 98.53,-22.95 91.93,-102.38 -62.41,0 -394.26,90.63 -439.8,112.48z"/>
   <path class="fil0" d="M15259.12 15041.25c0,47.25 59.59,92.05 81.83,92.05 135.89,0 146.66,-184.11 10.22,-184.11 -59.94,0 -92.05,54.77 -92.05,92.06z"/>
   <path class="fil0" d="M19176.43 13609.32c0,145.73 184.12,145.73 184.12,0 0,-95.52 -184.12,-95.52 -184.12,0z"/>
   <path class="fil0" d="M14471.57 13619.55c0,30.29 27.12,51.01 40.91,71.6l81.84 0c13.75,-20.59 40.88,-41.31 40.88,-71.6 0,-117.02 -163.63,-98.7 -163.63,0z"/>
   <path class="fil0" d="M17151.3 13619.55c0,30.29 27.13,51.01 40.92,71.6l81.83 0c13.76,-20.59 40.91,-41.31 40.91,-71.6 0,-117.02 -163.66,-98.7 -163.66,0z"/>
   <path class="fil0" d="M15872.81 13619.55c0,107.95 176.12,86.2 163.63,-10.23 -10.43,-80.53 -163.63,-109.38 -163.63,10.23z"/>
   <path class="fil0" d="M14717.03 13578.63c0,66.52 -6.19,112.52 81.83,112.52 78.85,0 71.6,-59.24 71.6,-112.52 -89.25,-59.75 -67.07,-57.81 -153.43,0z"/>
   <path class="fil0" d="M17396.76 13619.55c0,98.18 153.43,98.18 153.43,0l0 -40.92c-20.59,-13.79 -41.27,-40.91 -71.6,-40.91 -49.46,0 -81.83,32.37 -81.83,81.83z"/>
   <path class="fil0" d="M16108.04 13609.32c31.75,136.21 163.66,82.93 163.66,10.23 0,-70.44 -94.46,-140.97 -163.66,-10.23z"/>
   <path class="fil0" d="M15443.24 5130.31l0 20.46c29.64,19.84 11.74,20.46 61.37,20.46 26.18,-49.56 43.08,-81.83 -51.15,-81.83 -6.57,27.42 -10.22,19.26 -10.22,40.91z"/>
   <path class="fil0" d="M18542.31 7891.88c0,41.82 81.84,71.11 81.84,0 0,-54.51 -81.84,-54.51 -81.84,0z"/>
   <path class="fil0" d="M17069.47 5795.12c0,46.22 44.8,40.91 71.61,40.91 1.13,-2.27 2.68,-8.51 3.3,-6.89 0.61,1.58 2.71,-5.51 3.56,-6.7 11.98,-17.35 5.63,-7.93 13.59,-17.1 -23.98,-45.28 -5.86,-27.15 -51.14,-51.14 -11.53,7.74 -40.92,24.02 -40.92,40.92z"/>
   <path class="fil0" d="M17171.76 5866.72c0,56.22 81.83,79.21 81.83,0 0,-55.52 -81.83,-26.97 -81.83,0z"/>
   <path class="fil0" d="M15320.49 5109.85c0,45.42 7.48,40.92 61.37,40.92 11.14,-21.1 14.18,-24.24 20.46,-51.14 -1.68,-1.75 -4.01,-7.16 -4.79,-5.44 -1.33,2.88 -13.98,-25.25 -46.36,-25.25 -12.46,0 -30.68,21.14 -30.68,40.91z"/>
   <path class="fil0" d="M14031.77 5171.23c0,49.75 18.12,40.91 71.6,40.91 16.47,-62.21 13.56,-13.33 0,-71.6 -37.75,0 -71.6,-9.06 -71.6,30.69z"/>
   <path class="fil0" d="M13909.02 5181.46c0,95 81.83,65.32 81.83,20.46 0,-58.89 -55.25,-36.42 -81.83,-20.46z"/>
   <path class="fil0" d="M15781.95 9773.8l75.32 65.45c-23.44,-35.31 -35.22,-56.74 -66.29,-73.34l-9.03 7.89z"/>
   <path class="fil0" d="M13955.92 9769.05c-40.39,16.02 -33.92,10.55 -51.72,50.26 32.56,-18.25 32.85,-17.77 51.72,-50.26z"/>
   <polygon class="fil0" points="14880.69,11635.3 14870.46,11635.3 14878.97,11647.25 "/>
  </g>
 </g>
</svg>
