<svg xmlns="http://www.w3.org/2000/svg" xmlns:xlink="http://www.w3.org/1999/xlink" width="93" height="19" viewBox="0 0 93 19">
    <defs>
        <path id="prefix__a" d="M0.433 0.315L11.103 0.315 11.103 16.678 0.433 16.678z"/>
        <path id="prefix__c" d="M0.273 0.309L10.632 0.309 10.632 18.394 0.273 18.394z"/>
        <path id="prefix__e" d="M0 18.64L92.965 18.64 92.965 0.309 0 0.309z"/>
    </defs>
    <g fill="none" fill-rule="evenodd">
        <path fill="#FFF" d="M1.915 2.812L1.915 7.277 0 7.277 0 9.378 1.915 9.378 1.915 18.239 4.493 18.239 4.493 9.378 7 9.378 7 7.277 4.493 7.277 4.493 2.239z"/>
        <g transform="translate(0 .239)">
            <g transform="translate(8.108 1.962)">
                <mask id="prefix__b" fill="#fff">
                    <use xlink:href="#prefix__a"/>
                </mask>
                <path fill="#FFF" d="M8.59 9.862c.016-1.017-.2-1.735-.645-2.153-.447-.418-1.085-.628-1.914-.628-1.675 0-2.64.928-2.895 2.78H8.59zm-6.602-7.53h8.134V.315H1.988v2.017zm1.005 13.546c-.878-.533-1.524-1.246-1.939-2.141-.414-.894-.621-1.873-.621-2.94 0-1.197.243-2.247.73-3.15.486-.902 1.16-1.595 2.02-2.079.862-.483 1.835-.725 2.92-.725 1.69 0 2.946.479 3.768 1.439.82.96 1.232 2.309 1.232 4.047 0 .443-.024.903-.072 1.379H3.136c.176 1 .522 1.721 1.04 2.165.519.443 1.24.664 2.166.664.766 0 1.395-.066 1.89-.197.494-.131.948-.311 1.363-.541l.79 1.895c-.399.262-.941.492-1.627.688-.686.197-1.515.296-2.488.296-1.308 0-2.4-.267-3.277-.8z" mask="url(#prefix__b)"/>
            </g>
            <path fill="#FFF" d="M24.102 17.914c-.869-.483-1.559-1.181-2.069-2.092-.51-.91-.765-1.98-.765-3.21 0-1.165.235-2.187.705-3.064.47-.878 1.133-1.554 1.986-2.03.853-.475 1.838-.713 2.955-.713.844 0 1.574.11 2.188.331.614.222 1.097.497 1.448.825l-1.149 2.14c-.67-.689-1.427-1.033-2.272-1.033-1.021 0-1.799.32-2.333.96-.534.64-.801 1.493-.801 2.56 0 1.213.275 2.156.825 2.828.55.673 1.32 1.01 2.309 1.01.494 0 .977-.075 1.447-.222.47-.148.834-.32 1.089-.517l.933 1.87c-.351.28-.842.53-1.472.75-.63.222-1.327.333-2.092.333-1.086 0-2.063-.243-2.932-.726"/>
            <g transform="translate(32.908)">
                <mask id="prefix__d" fill="#fff">
                    <use xlink:href="#prefix__c"/>
                </mask>
                <path fill="#FFF" d="M.273.308h2.512V7.1L2.69 9.19c.303-.688.79-1.257 1.46-1.71.67-.45 1.45-.676 2.344-.676 1.133 0 2.002.242 2.608.726.606.484 1.013 1.161 1.22 2.03.207.87.311 2.002.311 3.396v5.438h-2.56V12.93c0-.951-.052-1.698-.155-2.239-.104-.542-.311-.951-.622-1.23s-.762-.418-1.352-.418c-.478 0-.96.147-1.447.443-.487.294-.89.725-1.208 1.291-.32.566-.48 1.234-.48 2.006v5.61H.274V.308z" mask="url(#prefix__d)"/>
            </g>
            <mask id="prefix__f" fill="#fff">
                <use xlink:href="#prefix__e"/>
            </mask>
            <path fill="#FFF" d="M47.033 18.394L49.592 18.394 49.592.309 47.033.309zM60.812 15.453c.622-.648.933-1.497.933-2.546v-.173c0-.704-.143-1.337-.43-1.894-.287-.558-.679-.993-1.173-1.304-.494-.312-1.036-.468-1.626-.468-1.021 0-1.81.34-2.369 1.021-.558.68-.837 1.563-.837 2.645 0 1.1.275 1.99.825 2.67.55.68 1.344 1.021 2.381 1.021.909 0 1.674-.324 2.296-.972m-5.466 2.46c-.838-.483-1.507-1.172-2.01-2.066-.502-.894-.753-1.94-.753-3.138 0-1.18.219-2.213.657-3.1.44-.886 1.065-1.574 1.879-2.066.813-.493 1.77-.739 2.87-.739.638 0 1.236.116 1.795.345.558.23 1.028.512 1.411.849.382.336.638.669.765.996L62.01 7.1h2.464v11.294h-2.44l-.048-1.993c-.272.59-.766 1.111-1.484 1.562-.717.451-1.523.677-2.416.677-.99 0-1.902-.242-2.74-.726M67.941 7.1h2.536l.024 2.067c.303-.689.781-1.256 1.435-1.698.654-.443 1.42-.665 2.297-.665 1.132 0 2.002.243 2.608.726.606.484 1.012 1.16 1.22 2.03.207.87.31 2.002.31 3.396v5.437h-2.583V13.03c0-1.427-.136-2.456-.406-3.088-.272-.632-.83-.948-1.675-.948-.479 0-.966.152-1.46.456-.494.303-.905.742-1.232 1.316-.327.575-.49 1.247-.49 2.018v5.61h-2.584V7.1zM89.28 15.428c.623-.647.933-1.496.933-2.546v-.172c0-.705-.143-1.337-.43-1.895-.287-.557-.678-.992-1.172-1.304-.495-.311-1.037-.468-1.627-.468-1.02 0-1.81.341-2.368 1.022-.559.68-.838 1.562-.838 2.645 0 1.099.276 1.99.825 2.67.551.68 1.344 1.02 2.381 1.02.91 0 1.675-.323 2.297-.972m-5.467 2.485c-.837-.483-1.507-1.172-2.01-2.066-.502-.894-.753-1.94-.753-3.137 0-1.788.487-3.22 1.46-4.294.972-1.074 2.288-1.611 3.947-1.611.925 0 1.77.234 2.536.701.765.468 1.283 1.03 1.555 1.685l-.12-1.919V.31h2.536v18.085h-2.464l-.048-1.994c-.271.591-.766 1.112-1.483 1.563-.718.451-1.524.677-2.417.677-.989 0-1.901-.242-2.739-.727" mask="url(#prefix__f)"/>
            <path fill="#E00A31" d="M10.096 4.295L18.229 4.295 18.229 2.277 10.096 2.277z" mask="url(#prefix__f)"/>
        </g>
    </g>
</svg>
